<svg viewBox="0 0 400 400" xmlns="http://www.w3.org/2000/svg">
  <!-- Fond circulaire -->
  <circle cx="200" cy="200" r="190" fill="#f0f0f0" stroke="#c9a227" stroke-width="12"/>
  
  <!-- Lion - Forme générale de la tête -->
  <path d="M200 100 C 130 100, 100 170, 100 230 C 100 290, 150 330, 200 330 C 250 330, 300 290, 300 230 C 300 170, 270 100, 200 100 Z" 
        fill="#e8a923"/>
  
  <!-- Crinière -->
  <path d="M200 100 C 130 100, 90 170, 90 230 
           C 75 210, 65 170, 70 140 
           C 75 110, 90 90, 120 80
           C 80 90, 60 110, 50 140
           C 40 170, 45 200, 55 230
           C 45 220, 35 200, 35 170
           C 35 140, 45 110, 65 90
           C 85 70, 110 60, 140 60
           C 160 55, 180 55, 200 60
           C 220 55, 240 55, 260 60
           C 290 60, 315 70, 335 90
           C 355 110, 365 140, 365 170
           C 365 200, 355 220, 345 230
           C 355 200, 360 170, 350 140
           C 340 110, 320 90, 280 80
           C 310 90, 325 110, 330 140
           C 335 170, 325 210, 310 230
           C 310 170, 270 100, 200 100 Z" 
        fill="#c9731d"/>
  
  <!-- Oreilles -->
  <ellipse cx="130" cy="120" rx="25" ry="30" fill="#e8a923" transform="rotate(-10 130 120)"/>
  <ellipse cx="270" cy="120" rx="25" ry="30" fill="#e8a923" transform="rotate(10 270 120)"/>
  <ellipse cx="130" cy="120" rx="15" ry="20" fill="#f0d7a3" transform="rotate(-10 130 120)"/>
  <ellipse cx="270" cy="120" rx="15" ry="20" fill="#f0d7a3" transform="rotate(10 270 120)"/>
  
  <!-- Visage -->
  <ellipse cx="200" cy="220" rx="80" ry="90" fill="#f0d7a3"/>
  
  <!-- Yeux -->
  <g>
    <ellipse cx="165" cy="190" rx="15" ry="12" fill="white"/>
    <ellipse cx="235" cy="190" rx="15" ry="12" fill="white"/>
    <ellipse cx="165" cy="188" rx="8" ry="8" fill="#502000"/>
    <ellipse cx="235" cy="188" rx="8" ry="8" fill="#502000"/>
    <ellipse cx="168" cy="185" rx="3" ry="3" fill="white"/>
    <ellipse cx="238" cy="185" rx="3" ry="3" fill="white"/>
    <!-- Paupières déterminées -->
    <path d="M150 182 Q 165 175, 180 182" stroke="#c9731d" stroke-width="3" fill="none"/>
    <path d="M220 182 Q 235 175, 250 182" stroke="#c9731d" stroke-width="3" fill="none"/>
  </g>
  
  <!-- Nez -->
  <path d="M200 200 Q 190 210, 190 220 L 210 220 Q 210 210, 200 200 Z" fill="#633517"/>
  
  <!-- Bouche et menton joyeux -->
  <path d="M175 230 Q 200 250, 225 230" stroke="#633517" stroke-width="3" fill="none"/>
  
  <!-- Moustaches -->
  <line x1="190" y1="220" x2="150" y2="215" stroke="#633517" stroke-width="1.5"/>
  <line x1="190" y1="222" x2="145" y2="225" stroke="#633517" stroke-width="1.5"/>
  <line x1="190" y1="224" x2="150" y2="235" stroke="#633517" stroke-width="1.5"/>
  
  <line x1="210" y1="220" x2="250" y2="215" stroke="#633517" stroke-width="1.5"/>
  <line x1="210" y1="222" x2="255" y2="225" stroke="#633517" stroke-width="1.5"/>
  <line x1="210" y1="224" x2="250" y2="235" stroke="#633517" stroke-width="1.5"/>
  
  <!-- Petite couronne royale -->
  <path d="M170 80 L 185 100 L 200 70 L 215 100 L 230 80 L 225 110 L 175 110 Z" fill="#c9a227" stroke="#633517" stroke-width="2"/>
  <circle cx="185" cy="90" r="3" fill="#e74c3c"/>
  <circle cx="200" cy="85" r="3" fill="#3498db"/>
  <circle cx="215" cy="90" r="3" fill="#e74c3c"/>
  
  <!-- Texte AdaFiT -->
  <text x="200" y="380" font-family="Arial, sans-serif" font-size="40" font-weight="bold" text-anchor="middle" fill="#633517">AdaFiT</text>
</svg>